<svg width="30" height="27" viewBox="0 0 30 27" fill="none" xmlns="http://www.w3.org/2000/svg">
<path d="M30 16.0835C30 15.0742 29.4704 14.1344 28.6828 13.5179C29.3207 12.9991 29.7203 12.2214 29.7203 11.3018C29.7203 10.0471 29.0445 8.79034 27.9735 8.16566C28.3409 7.69558 28.5091 7.12795 28.5091 6.57867C28.5091 5.18315 26.6242 2.86493 24.1578 2.79642C24.1815 2.65908 24.1946 2.51984 24.1946 2.3817C24.1946 0.867726 22.2288 0.0921197 20.817 0.0921197C19.7559 0.0921197 18.7001 0.459584 17.872 1.1402C17.2344 0.388729 16.1474 0 15.1192 0C15.0793 0 15.0396 0.000617365 15 0.00176445C14.9604 0.000617365 14.9207 0 14.8808 0C13.8526 0 12.7656 0.388729 12.128 1.1402C11.2999 0.459584 10.244 0.0921197 9.18295 0.0921197C7.7712 0.0921197 5.80545 0.86777 5.80545 2.3817C5.80545 2.51984 5.81846 2.65908 5.84215 2.79642C3.37583 2.86489 1.4909 5.18315 1.4909 6.57867C1.4909 7.12795 1.65913 7.69558 2.02655 8.16566C0.955479 8.79034 0.279712 10.0472 0.279712 11.3018C0.279712 12.2215 0.679252 12.9991 1.31716 13.5179C0.529645 14.1344 0 15.0742 0 16.0835C0 17.3632 0.840902 18.3977 2.04817 18.6672C1.85647 19.1001 1.74988 19.5729 1.74988 20.0328C1.74988 21.8058 3.36612 22.4257 3.79425 22.4257C3.86515 22.4257 3.93468 22.4192 4.00293 22.4069C4.37724 23.6758 5.85803 24.9421 7.56785 24.9421C8.4684 24.9421 9.21154 24.7502 9.82933 24.4403C10.3385 25.0856 11.2011 25.4475 12.034 25.4475C12.1119 25.4475 12.192 25.4448 12.2726 25.4383C12.7764 26.1561 13.8183 26.5537 14.5152 26.5537C14.6413 26.5537 14.8149 26.5412 15.0001 26.5127C15.1853 26.5412 15.3589 26.5537 15.485 26.5537C16.1818 26.5537 17.2238 26.1561 17.7276 25.4383C17.8082 25.4448 17.8882 25.4475 17.9661 25.4475C18.7991 25.4475 19.6617 25.0856 20.1708 24.4403C20.7886 24.7502 21.5318 24.9421 22.4323 24.9421C24.1421 24.9421 25.6229 23.6758 25.9972 22.4069C26.0655 22.4192 26.135 22.4257 26.2059 22.4257C26.634 22.4257 28.2503 21.8058 28.2503 20.0328C28.2503 19.5729 28.1437 19.1002 27.952 18.6672C29.1591 18.3977 30 17.3632 30 16.0835Z" fill="#F17B38"/>
<path d="M25.8588 7.95492C26.4401 7.40904 27.1325 6.97787 27.8643 6.62986C26.2665 5.24224 23.9354 4.59766 21.7461 4.53228C21.8894 4.04075 22.1201 3.57619 22.4617 3.17691C22.0825 3.13165 21.6939 3.1087 21.302 3.1087C19.1302 3.1087 16.4024 3.88546 15 5.41849C13.5975 3.88546 10.8697 3.1087 8.69791 3.1087C8.30605 3.1087 7.91745 3.13165 7.53821 3.17691C7.87982 3.57619 8.11051 4.0408 8.25377 4.53228C6.06451 4.59766 3.73346 5.24224 2.13561 6.62986C2.86745 6.97787 3.55976 7.40904 4.14116 7.95492C2.83348 9.03984 2.43059 10.918 2.13332 12.4529C2.65731 12.3457 3.19344 12.2574 3.73152 12.2456C2.96875 13.4629 3.27948 14.4782 2.77048 15.6557C2.86339 15.6563 2.95635 15.6568 3.0494 15.6568C3.3074 15.6568 3.56585 15.6532 3.82412 15.639C3.6791 16.1957 3.61641 16.7661 3.61641 17.3395C3.61641 18.1041 3.7279 18.8739 3.90415 19.6233C4.29738 19.4598 4.69529 19.3064 5.10436 19.1671C5.11141 19.3445 5.11786 19.5222 5.11786 19.6988C5.11786 20.4069 5.01431 21.0974 4.43313 21.6777C5.30382 21.6299 6.15248 21.5569 6.98183 21.4031C6.94428 21.8668 6.7892 22.3314 6.55789 22.7438C6.84519 22.7592 7.1362 22.7679 7.42853 22.7679C8.16421 22.7679 8.9084 22.7129 9.62427 22.5718C9.82563 23.171 10.2945 23.6825 10.7795 24.1291C10.8265 23.6392 11.0635 23.2091 11.3727 22.8111C12.1261 23.8951 13.6843 24.4742 14.9999 24.778C16.3154 24.4742 17.8736 23.8951 18.6271 22.8111C18.9363 23.2091 19.1732 23.6392 19.2202 24.1291C19.7053 23.6825 20.1741 23.171 20.3755 22.5718C21.0913 22.7129 21.8356 22.7679 22.5712 22.7679C22.8635 22.7679 23.1545 22.7592 23.4418 22.7438C23.2105 22.3314 23.0554 21.8668 23.0179 21.4031C23.8472 21.5569 24.6959 21.6299 25.5666 21.6777C24.9855 21.0975 24.8819 20.4069 24.8819 19.6988C24.8819 19.5222 24.8884 19.3445 24.8954 19.1671C25.3045 19.3064 25.7024 19.4598 26.0956 19.6233C26.2719 18.874 26.3834 18.1041 26.3834 17.3395C26.3834 16.7661 26.3207 16.1957 26.1757 15.639C26.4339 15.6532 26.6923 15.6568 26.9504 15.6568C27.0434 15.6568 27.1364 15.6563 27.2293 15.6557C26.7203 14.4782 27.031 13.4629 26.2683 12.2456C26.8063 12.2574 27.3425 12.3457 27.8665 12.4529C27.5693 10.918 27.1664 9.03984 25.8588 7.95492Z" fill="#D96A27"/>
<path d="M3.92035 9.03262C3.92035 10.758 5.80717 11.7069 7.7442 11.7069C7.89791 11.7069 8.04165 11.685 8.16307 11.6041L11.335 9.32164C11.335 6.80003 9.15446 5.20889 7.88838 5.20889C6.18845 5.20889 3.92035 7.54718 3.92035 9.03262Z" fill="#F1BB54"/>
<path d="M5.78325 9.16839C5.78325 10.2419 6.95725 10.8324 8.16248 10.8324C8.25813 10.8324 8.34756 10.8187 8.42309 10.7684L10.3967 9.34822C10.3967 7.77927 9.03991 6.78925 8.25217 6.78925C7.19447 6.7892 5.78325 8.24415 5.78325 9.16839Z" fill="#B58C3E"/>
<path d="M18.6649 9.32164L21.8369 11.6041C21.9584 11.685 22.1021 11.7069 22.2558 11.7069C24.1928 11.7069 26.0796 10.758 26.0796 9.03262C26.0796 7.54723 23.8115 5.20889 22.1115 5.20889C20.8455 5.20889 18.6649 6.80003 18.6649 9.32164Z" fill="#F1BB54"/>
<path d="M19.6032 9.34819L21.5768 10.7683C21.6524 10.8187 21.7418 10.8323 21.8375 10.8323C23.0427 10.8323 24.2167 10.2419 24.2167 9.16836C24.2167 8.24412 22.8055 6.78922 21.7477 6.78922C20.96 6.78922 19.6032 7.77928 19.6032 9.34819Z" fill="#B58C3E"/>
<path d="M5.80262 16.8056C6.05948 21.2866 9.57353 23.2255 15 23.2255C20.4265 23.2255 23.9405 21.2866 24.1974 16.8056C24.6206 9.42289 19.0469 6.92233 15 6.92233C10.9531 6.92233 5.37943 9.42293 5.80262 16.8056Z" fill="#F1BB54"/>
<path d="M7.63101 21.0418C9.22259 22.5398 11.7731 23.2256 14.9999 23.2256C18.2268 23.2256 20.7773 22.5399 22.3689 21.0418C21.1713 17.737 17.6153 15.8429 14.9999 15.8429C12.3846 15.8429 8.82861 17.737 7.63101 21.0418Z" fill="#FDE196"/>
<path d="M5.89249 17.6388C6.51972 21.5279 9.9226 23.2255 15 23.2255C20.0773 23.2255 23.4802 21.5279 24.1074 17.6388C23.0849 20.8606 19.7609 22.2825 15 22.2825C10.239 22.2825 6.91503 20.8607 5.89249 17.6388Z" fill="#D9A84C"/>
<path d="M7.8753 20.4542C7.78579 20.6446 7.70408 20.8403 7.63124 21.0412C8.62382 21.9757 9.9056 22.5184 11.2212 22.8315C13.6426 23.4077 17.1755 23.3732 19.5557 22.6169C20.5893 22.2881 21.5686 21.7935 22.3687 21.0413C22.2959 20.8403 22.2141 20.6447 22.1246 20.4543C20.4815 21.7056 18.0324 22.2825 15 22.2825C11.9676 22.2825 9.51842 21.7055 7.8753 20.4542Z" fill="#E0C784"/>
<path d="M10.9555 15.3259C11.8417 15.3259 12.5601 14.6075 12.5601 13.7213C12.5601 12.8351 11.8417 12.1166 10.9555 12.1166C10.0692 12.1166 9.35081 12.8351 9.35081 13.7213C9.35081 14.6075 10.0692 15.3259 10.9555 15.3259Z" fill="white"/>
<path d="M10.9555 14.802C11.5523 14.802 12.0362 14.3181 12.0362 13.7213C12.0362 13.1244 11.5523 12.6405 10.9555 12.6405C10.3586 12.6405 9.87473 13.1244 9.87473 13.7213C9.87473 14.3181 10.3586 14.802 10.9555 14.802Z" fill="#31343B"/>
<path d="M10.553 13.7971C10.7514 13.7971 10.9122 13.6363 10.9122 13.438C10.9122 13.2396 10.7514 13.0788 10.553 13.0788C10.3547 13.0788 10.1939 13.2396 10.1939 13.438C10.1939 13.6363 10.3547 13.7971 10.553 13.7971Z" fill="white"/>
<path d="M19.2253 15.3259C20.1115 15.3259 20.83 14.6075 20.83 13.7213C20.83 12.8351 20.1115 12.1166 19.2253 12.1166C18.3391 12.1166 17.6207 12.8351 17.6207 13.7213C17.6207 14.6075 18.3391 15.3259 19.2253 15.3259Z" fill="white"/>
<path d="M19.2253 14.802C19.8222 14.802 20.3061 14.3181 20.3061 13.7213C20.3061 13.1244 19.8222 12.6405 19.2253 12.6405C18.6285 12.6405 18.1446 13.1244 18.1446 13.7213C18.1446 14.3181 18.6285 14.802 19.2253 14.802Z" fill="#31343B"/>
<path d="M18.8229 13.7971C19.0213 13.7971 19.1821 13.6363 19.1821 13.438C19.1821 13.2396 19.0213 13.0788 18.8229 13.0788C18.6246 13.0788 18.4638 13.2396 18.4638 13.438C18.4638 13.6363 18.6246 13.7971 18.8229 13.7971Z" fill="white"/>
<path d="M13.3639 16.2621C13.3639 16.6731 14.0964 17.3312 15 17.3312C15.9036 17.3312 16.6361 16.6731 16.6361 16.2621C16.6361 15.8511 15.9036 15.8429 15 15.8429C14.0964 15.8429 13.3639 15.8511 13.3639 16.2621Z" fill="#31343B"/>
<path d="M11.3295 9.62721C11.2696 9.63828 11.2301 9.69586 11.2412 9.75573C11.2523 9.8156 11.3098 9.85522 11.3697 9.8441C11.822 9.76045 12.6827 9.87392 13.0683 10.535C13.0888 10.5701 13.1257 10.5897 13.1637 10.5897C13.1825 10.5897 13.2016 10.5849 13.2191 10.5747C13.2717 10.544 13.2895 10.4764 13.2588 10.4238C12.8131 9.65977 11.8609 9.52878 11.3295 9.62721Z" fill="#31343B"/>
<path d="M16.7411 10.4239C16.7104 10.4765 16.7282 10.544 16.7808 10.5747C16.7983 10.5849 16.8174 10.5898 16.8363 10.5898C16.8742 10.5898 16.9111 10.5702 16.9316 10.535C17.3172 9.87397 18.1782 9.76046 18.6302 9.84415C18.6899 9.85518 18.7477 9.81565 18.7587 9.75578C18.7698 9.69591 18.7303 9.63834 18.6704 9.62726C18.1391 9.52879 17.1868 9.65978 16.7411 10.4239Z" fill="#31343B"/>
<path d="M10.2851 18.3667C10.882 18.3667 11.3659 18.1407 11.3659 17.8618C11.3659 17.583 10.882 17.357 10.2851 17.357C9.68825 17.357 9.20439 17.583 9.20439 17.8618C9.20439 18.1407 9.68825 18.3667 10.2851 18.3667Z" fill="#E68075"/>
<path d="M19.7148 18.3667C20.3117 18.3667 20.7955 18.1407 20.7955 17.8618C20.7955 17.583 20.3117 17.357 19.7148 17.357C19.1179 17.357 18.6341 17.583 18.6341 17.8618C18.6341 18.1407 19.1179 18.3667 19.7148 18.3667Z" fill="#E68075"/>
<path d="M14.8897 16.7573V18.4948C14.6733 18.561 14.0298 18.7187 13.8429 18.32C13.8171 18.2648 13.7514 18.241 13.6963 18.2669C13.6411 18.2927 13.6174 18.3584 13.6432 18.4135C13.7283 18.595 13.9227 18.8019 14.367 18.8019C14.4034 18.8019 14.4415 18.8005 14.4812 18.7976C14.7741 18.7763 15.0281 18.6816 15.0388 18.6776C15.0818 18.6614 15.1102 18.6203 15.1102 18.5744V16.7573C15.1102 16.6963 15.0609 16.647 15 16.647C14.939 16.647 14.8897 16.6964 14.8897 16.7573Z" fill="#31343B"/>
<path d="M14.9999 16.647C14.939 16.647 14.8896 16.6964 14.8896 16.7573V18.5744C14.8896 18.6203 14.9181 18.6615 14.9611 18.6777C14.9718 18.6817 15.2258 18.7763 15.5186 18.7977C15.5585 18.8005 15.5965 18.802 15.6329 18.8019C16.0771 18.8019 16.2717 18.5951 16.3567 18.4136C16.3825 18.3584 16.3588 18.2927 16.3036 18.2669C16.2485 18.241 16.1828 18.2647 16.157 18.32C15.9701 18.7189 15.3264 18.561 15.1102 18.4948V16.7573C15.1102 16.6964 15.0609 16.647 14.9999 16.647Z" fill="#31343B"/>
</svg>
