<svg width="108" height="141" viewBox="0 0 108 141" fill="none" xmlns="http://www.w3.org/2000/svg">
<path d="M55.592 76.3625L55.5672 76.3571L55.5704 76.3759L32.0928 90.9481L37.8839 137.495L65.2826 132.777L65.329 132.769L92.728 128.051L82.6163 82.248L55.6168 76.3679L55.6136 76.3491L55.592 76.3625Z" fill="#F3B953"/>
<path d="M36.4838 126.243C38.0334 124.023 39.2325 122.038 41.3526 121.673C42.9962 121.39 44.9167 121.812 46.6576 121.512C48.6131 121.176 50.5039 119.697 50.1232 117.486C49.8816 116.083 41.6678 110.308 34.2019 107.901L36.4838 126.243Z" fill="#85652C"/>
<path d="M69.1924 114.31C69.3293 115.105 70.9566 116.044 72.9049 115.709C74.3334 115.463 75.7716 114.726 77.2142 114.478C80.0145 113.996 81.2237 121.235 89.2639 119.851C89.789 119.76 90.3128 119.63 90.833 119.468L86.8876 101.596C78.3171 109.533 68.5577 110.624 69.1924 114.31Z" fill="#85652C"/>
<path d="M41.2055 26.4606L42.6794 26.2068C41.7814 20.9915 39.6501 16.481 36.3454 12.8007L35.2326 13.8001C38.3463 17.2674 40.3559 21.527 41.2055 26.4606Z" fill="#B58C3E"/>
<path d="M35.9976 15.5062C37.7759 15.2 38.9693 13.5101 38.6631 11.7317C38.3569 9.95337 36.667 8.75999 34.8886 9.06622C33.1103 9.37245 31.9169 11.0623 32.2231 12.8407C32.5293 14.619 34.2192 15.8124 35.9976 15.5062Z" fill="#B58C3E"/>
<path d="M52.5152 24.513C51.6657 19.5796 52.1348 14.893 53.9094 10.5839L52.5265 10.0143C50.643 14.588 50.1432 19.5515 51.0413 24.7669L52.5152 24.513Z" fill="#B58C3E"/>
<path d="M53.7592 12.4477C55.5375 12.1414 56.7309 10.4515 56.4247 8.67319C56.1185 6.89484 54.4286 5.70145 52.6502 6.00768C50.8719 6.31391 49.6785 8.0038 49.9847 9.78215C50.2909 11.5605 51.9808 12.7539 53.7592 12.4477Z" fill="#B58C3E"/>
<path d="M14.411 30.0039C11.0754 30.5783 7.77659 31.7572 4.78572 33.3614C3.38093 34.1147 3.11042 36.0306 4.2646 37.1302C11.4584 43.9839 22.464 45.9297 32.3447 44.2282C34.4539 43.865 36.5118 43.3358 38.4706 42.6523L34.4145 37.3752C29.6272 30.4839 21.9257 28.7099 14.411 30.0039Z" fill="#F3B953"/>
<path d="M78.9516 18.8901C71.4369 20.1841 64.7723 24.4319 62.5658 32.5275L60.5084 38.8573C62.5828 38.8463 64.6991 38.6568 66.8083 38.2936C76.6892 36.5921 86.4099 31.0773 90.897 22.2122C91.6169 20.7899 90.7212 19.075 89.1453 18.8347C85.7901 18.3234 82.2871 18.3157 78.9516 18.8901Z" fill="#F3B953"/>
<path d="M15.2169 34.6842C14.5487 34.7993 13.8753 34.945 13.2014 35.1197C12.1169 35.4009 11.9662 36.8935 12.9776 37.3755C17.8806 39.7114 24.0084 40.5893 30.2692 39.743C28.6332 37.5265 26.5078 35.9753 23.9469 35.1299C21.4085 34.292 18.3896 34.1379 15.2169 34.6842Z" fill="#B58C3E"/>
<path d="M79.7575 23.5704C76.5848 24.1167 73.7915 25.2718 71.6794 26.9105C69.5488 28.5636 68.0646 30.7363 67.2642 33.3725C73.4474 32.076 78.9286 29.1988 82.768 25.3579C83.5599 24.5655 82.9187 23.2091 81.8026 23.3068C81.1089 23.3675 80.4257 23.4553 79.7575 23.5704Z" fill="#B58C3E"/>
<path d="M26.7455 91.8689L60.5613 105.051L88.0202 81.3175C88.0202 81.3175 84.7271 13.879 46.0096 20.5461C7.29216 27.2132 26.7455 91.8689 26.7455 91.8689Z" fill="#F3B953"/>
<path d="M36.9483 61.536C40.6492 60.8987 43.1328 57.3819 42.4955 53.681C41.8582 49.9801 38.3414 47.4966 34.6405 48.1339C30.9396 48.7712 28.4561 52.2879 29.0934 55.9888C29.7307 59.6897 33.2475 62.1733 36.9483 61.536Z" fill="white"/>
<path d="M36.5716 59.3481C39.0642 58.9189 40.7368 56.5503 40.3076 54.0578C39.8784 51.5652 37.5099 49.8925 35.0173 50.3217C32.5247 50.751 30.8521 53.1195 31.2813 55.6121C31.7105 58.1047 34.0791 59.7773 36.5716 59.3481Z" fill="#31343B"/>
<path d="M34.1684 55.441C34.9968 55.2984 35.5527 54.5112 35.4101 53.6828C35.2674 52.8545 34.4803 52.2986 33.6519 52.4412C32.8235 52.5839 32.2676 53.371 32.4103 54.1994C32.5529 55.0278 33.3401 55.5837 34.1684 55.441Z" fill="white"/>
<path d="M68.1755 56.1587C71.8764 55.5214 74.3599 52.0046 73.7226 48.3037C73.0853 44.6028 69.5686 42.1193 65.8677 42.7566C62.1668 43.3939 59.6833 46.9107 60.3205 50.6116C60.9578 54.3124 64.4746 56.796 68.1755 56.1587Z" fill="white"/>
<path d="M67.7987 53.9708C70.2913 53.5416 71.964 51.173 71.5348 48.6805C71.1055 46.1879 68.737 44.5152 66.2444 44.9444C63.7518 45.3737 62.0792 47.7422 62.5084 50.2348C62.9376 52.7273 65.3062 54.4 67.7987 53.9708Z" fill="#31343B"/>
<path d="M65.3957 50.0637C66.224 49.9211 66.7799 49.1339 66.6373 48.3055C66.4946 47.4771 65.7075 46.9212 64.8791 47.0639C64.0507 47.2065 63.4948 47.9937 63.6375 48.8221C63.7801 49.6505 64.5673 50.2063 65.3957 50.0637Z" fill="white"/>
<path d="M35.0576 67.9369C23.9722 69.8458 16.4641 80.4774 18.373 91.5629C20.2819 102.648 30.9136 110.156 41.999 108.247L79.1234 101.855C90.2088 99.9458 97.7168 89.3141 95.8079 78.2287C93.899 67.1432 83.2674 59.6352 72.1819 61.5441L35.0576 67.9369Z" fill="#FDDF8C"/>
<path d="M78.6435 99.068L41.5192 105.461C30.9021 107.289 20.7024 100.479 18.1825 90.1611C18.23 90.6272 18.2925 91.0947 18.3731 91.5629C20.282 102.648 30.9136 110.156 41.9991 108.247L79.1234 101.855C90.2087 99.9458 97.7169 89.3141 95.808 78.2286C95.7273 77.7603 95.6299 77.299 95.5187 76.8439C96.5947 87.41 89.2605 97.2398 78.6435 99.068Z" fill="#F2D686"/>
<path d="M43.8505 70.7209C46.1559 70.3239 47.703 68.1331 47.306 65.8277C46.909 63.5222 44.7183 61.9751 42.4128 62.3721C40.1074 62.7691 38.5603 64.9599 38.9573 67.2653C39.3543 69.5708 41.545 71.1179 43.8505 70.7209Z" fill="#FDDF8C"/>
<path d="M43.466 68.4884C44.5385 68.3037 45.2582 67.2846 45.0735 66.2121C44.8888 65.1396 43.8697 64.4199 42.7972 64.6046C41.7247 64.7893 41.005 65.8084 41.1897 66.8809C41.3744 67.9534 42.3935 68.6731 43.466 68.4884Z" fill="#BFA96A"/>
<path d="M64.8265 67.1088C67.1319 66.7118 68.679 64.5211 68.282 62.2156C67.885 59.9102 65.6943 58.3631 63.3888 58.7601C61.0834 59.1571 59.5363 61.3478 59.9333 63.6533C60.3303 65.9587 62.521 67.5058 64.8265 67.1088Z" fill="#FDDF8C"/>
<path d="M64.4421 64.8763C65.5145 64.6916 66.2343 63.6725 66.0496 62.6C65.8649 61.5275 64.8458 60.8078 63.7733 60.9925C62.7008 61.1772 61.9811 62.1963 62.1658 63.2688C62.3505 64.3413 63.3696 65.061 64.4421 64.8763Z" fill="#BFA96A"/>
<path d="M28.9854 45.678C28.8206 45.8765 28.848 46.1714 29.0467 46.336C29.1561 46.4268 29.2947 46.4593 29.4246 46.4369C29.5305 46.4187 29.6308 46.364 29.7047 46.2748C30.826 44.9238 32.512 43.9693 34.3309 43.6561C35.8864 43.3882 37.4043 43.6355 38.6048 44.3518C38.8265 44.4838 39.1135 44.4116 39.2457 44.1901C39.3779 43.9685 39.3053 43.6816 39.0839 43.5492C37.6918 42.7184 35.9474 42.4294 34.1723 42.7351C32.1371 43.0853 30.2466 44.1579 28.9854 45.678Z" fill="#31343B"/>
<path d="M60.1469 39.9222C59.9822 40.1209 60.01 40.4157 60.2088 40.5801C60.4079 40.745 60.7025 40.717 60.8669 40.5181C61.7586 39.4415 63.1062 38.7008 64.6619 38.4329C66.4806 38.1198 68.3888 38.4553 69.8974 39.3535C69.9969 39.4126 70.1097 39.4308 70.2156 39.4125C70.3455 39.3902 70.4652 39.3132 70.5379 39.1911C70.6699 38.9693 70.5972 38.6825 70.3756 38.5505C68.6787 37.54 66.5383 37.1613 64.5033 37.5117C62.728 37.8176 61.1807 38.6735 60.1469 39.9222Z" fill="#31343B"/>
<path d="M73.3816 60.4708C75.8741 60.0415 77.7322 58.7497 77.5317 57.5853C77.3312 56.421 75.1481 55.825 72.6555 56.2542C70.1629 56.6834 68.3049 57.9753 68.5054 59.1397C68.7059 60.304 70.889 60.9 73.3816 60.4708Z" fill="#E68075"/>
<path d="M33.5681 67.3266C36.0607 66.8974 37.9188 65.6055 37.7183 64.4412C37.5178 63.2768 35.3346 62.6808 32.842 63.11C30.3495 63.5393 28.4914 64.8311 28.6919 65.9955C28.8924 67.1599 31.0756 67.7558 33.5681 67.3266Z" fill="#E68075"/>
<path d="M72.3999 79.6841C62.604 85.2477 52.0127 87.0717 40.9196 85.1049C40.6657 85.0603 40.423 85.2295 40.378 85.4837C40.3328 85.7379 40.5024 85.9804 40.7566 86.0254C46.4129 87.0283 51.9416 87.0646 57.3049 86.141C62.6684 85.2175 67.8665 83.334 72.8616 80.4969C73.0861 80.3695 73.1648 80.0843 73.0372 79.8598C72.9096 79.6352 72.6247 79.5566 72.3999 79.6841Z" fill="#31343B"/>
</svg>
