<svg width="93" height="133" viewBox="0 0 93 133" fill="none" xmlns="http://www.w3.org/2000/svg">
<path d="M2.6886 132.464C2.6886 132.464 9.93313 100.4 22.7987 75.9171L74.5978 74.0562C74.5978 74.0562 83.5578 93.1554 88.658 132.464H2.6886Z" fill="#35495E"/>
<path d="M23.128 132.464C23.128 132.464 26.957 108.786 33.6808 90.7125L60.844 89.3341C60.844 89.3341 65.546 103.44 68.2187 132.464H23.128Z" fill="#F5F0DD"/>
<path d="M24.606 14.0247C24.606 14.0247 14.9492 -8.827 3.20938 3.80881C-8.53043 16.4446 15.715 26.783 15.715 26.783L24.606 14.0247Z" fill="#35495E"/>
<path d="M21.5428 18.4204C21.5428 18.4204 12.0545 2.37677 7.32944 9.93527C2.60441 17.4938 15.715 26.783 15.715 26.783L21.5428 18.4204Z" fill="#2C3E50"/>
<path d="M68.3335 14.0247C68.3335 14.0247 77.998 -8.827 89.7761 3.80881C101.554 16.4446 77.2705 26.783 77.2705 26.783L68.3335 14.0247Z" fill="#35495E"/>
<path d="M71.3968 18.4204C71.3968 18.4204 80.9311 2.37677 85.6101 9.93527C90.2892 17.4938 77.2322 26.783 77.2322 26.783L71.3968 18.4204Z" fill="#2C3E50"/>
<path d="M42.0511 0.745588C12.7743 5.17961 -11.5554 54.8651 6.82398 78.3524C25.2033 101.84 86.4678 94.174 89.531 68.6496C92.5943 43.1253 75.7465 -4.35468 42.0511 0.745588Z" fill="#F5F0DD"/>
<path d="M31.9654 71.0466C31.9654 71.0466 32.8614 81.9211 42.8168 81.9211C52.7723 81.9211 53.1552 70.434 53.1552 70.434C53.1552 70.434 41.6681 74.1788 31.9654 71.0466Z" fill="#E64C3B"/>
<path d="M40.3893 72.7314C35.8634 72.7314 26.1913 71.6057 20.7847 62.7223L21.4356 62.3241C27.7765 72.739 40.2362 72.0804 42.4264 71.8813V55.5543H43.1922V72.5552L42.8629 72.6012C42.042 72.697 41.2158 72.7405 40.3893 72.7314V72.7314Z" fill="#2C3E50"/>
<path d="M42.8168 72.6471V71.8813C42.97 71.8813 58.2172 71.7664 63.1489 62.3853L63.8305 62.7376C58.6766 72.4939 43.4524 72.6471 42.8168 72.6471Z" fill="#2C3E50"/>
<path d="M33.4128 32.2125C28.3662 24.0184 3.86799 33.0856 12.3072 46.2268C20.7464 59.368 39.9681 42.8419 33.4128 32.2125Z" fill="#35495E"/>
<path d="M55.7437 32.2125C60.798 24.0184 85.2885 33.0856 76.857 46.2268C68.4255 59.368 49.1961 42.8419 55.7437 32.2125Z" fill="#35495E"/>
<path d="M27.2404 53.3335C27.2404 53.3335 43.0696 44.6569 58.3857 50.7834L42.8169 62.5232L27.2404 53.3335Z" fill="#2C3E50"/>
<path d="M51.3633 76.8744C49.567 76.4121 47.7196 76.1779 45.8648 76.1775C42.1908 76.1726 38.5757 77.1001 35.3579 78.8732C36.3111 79.8859 37.4697 80.6831 38.7562 81.2114C40.0426 81.7397 41.4271 81.9869 42.8169 81.9364C44.5767 82.0002 46.3178 81.557 47.8329 80.6596C49.3481 79.7622 50.5735 78.4483 51.3633 76.8744V76.8744Z" fill="#C03A2B"/>
<path d="M24.606 39.6256C26.2978 39.6256 27.6693 38.2541 27.6693 36.5624C27.6693 34.8706 26.2978 33.4991 24.606 33.4991C22.9143 33.4991 21.5428 34.8706 21.5428 36.5624C21.5428 38.2541 22.9143 39.6256 24.606 39.6256Z" fill="#2C3E50"/>
<path d="M63.4476 39.8017C65.1394 39.8017 66.5109 38.4303 66.5109 36.7385C66.5109 35.0467 65.1394 33.6753 63.4476 33.6753C61.7559 33.6753 60.3844 35.0467 60.3844 36.7385C60.3844 38.4303 61.7559 39.8017 63.4476 39.8017Z" fill="#2C3E50"/>
</svg>
